<svg xmlns="http://www.w3.org/2000/svg" width="46" height="46" viewBox="0 0 46 46" fill="none">
  <path
    d="M21.3321 38.1841C21.5458 38.4128 21.8043 38.5951 22.0915 38.7197C22.3786 38.8444 22.6884 38.9087 23.0015 38.9087C23.3145 38.9087 23.6243 38.8444 23.9114 38.7197C24.1986 38.5951 24.4571 38.4128 24.6708 38.1841L32.3079 30.011C32.9349 29.3737 33.4226 28.6132 33.7402 27.7777C34.0578 26.9421 34.1984 26.0497 34.153 25.157C34.1076 24.2643 33.8773 23.3908 33.4766 22.5917C33.0758 21.7927 32.5135 21.0856 31.8251 20.5151C30.7699 19.6465 29.461 19.144 28.0954 19.0835C26.7299 19.023 25.3816 19.4076 24.2536 20.1794C23.789 20.4994 23.3685 20.879 23.0029 21.3086C22.6374 20.879 22.2169 20.4994 21.7523 20.1794C20.6243 19.4074 19.2759 19.0228 17.9103 19.0835C16.5446 19.1442 15.2357 19.647 14.1807 20.5161C13.495 21.0848 12.9345 21.7891 12.5343 22.5849C12.1342 23.3807 11.9031 24.2506 11.8556 25.14C11.8081 26.0294 11.9453 26.919 12.2584 27.7529C12.5715 28.5867 13.0539 29.3468 13.6751 29.9852L21.3321 38.1841ZM15.7602 22.4268C16.3983 21.9002 17.1904 21.5953 18.0171 21.5582C18.8437 21.5212 19.6599 21.7539 20.3427 22.2212C21.0375 22.6973 21.5601 23.3848 21.8327 24.1816C21.9168 24.4255 22.0749 24.6372 22.285 24.7871C22.4951 24.9369 22.7468 25.0174 23.0049 25.0174C23.263 25.0174 23.5147 24.9369 23.7248 24.7871C23.935 24.6372 24.0931 24.4255 24.1771 24.1816C24.4509 23.3854 24.9732 22.6982 25.6672 22.2212C26.3503 21.755 27.1662 21.5229 27.9925 21.5597C28.8188 21.5966 29.6108 21.9005 30.2496 22.4258C30.6757 22.7753 31.0235 23.2104 31.2705 23.703C31.5174 24.1955 31.658 24.7345 31.6831 25.2849C31.7088 25.84 31.6187 26.3944 31.4184 26.9128C31.2181 27.4312 30.9121 27.9022 30.5198 28.2959L23.0029 36.3399L15.4622 28.2701C15.0771 27.8779 14.7775 27.4101 14.5822 26.8963C14.387 26.3825 14.3003 25.8338 14.3278 25.2849C14.3524 24.7346 14.4926 24.1957 14.7395 23.7033C14.9863 23.2109 15.3341 22.7759 15.7602 22.4268Z"
    fill="currentColor" />
  <path
    d="M42.8646 2.31929H33.4563V1.17029C33.4733 1.02325 33.459 0.87427 33.4144 0.733136C33.3697 0.592003 33.2957 0.461906 33.1972 0.351387C33.0987 0.240868 32.978 0.152426 32.8428 0.0918668C32.7077 0.0313073 32.5613 0 32.4133 0C32.2652 0 32.1188 0.0313073 31.9837 0.0918668C31.8486 0.152426 31.7278 0.240868 31.6293 0.351387C31.5308 0.461906 31.4568 0.592003 31.4121 0.733136C31.3675 0.87427 31.3532 1.02325 31.3702 1.17029V2.31929H14.6387V1.17029C14.6557 1.02325 14.6414 0.87427 14.5968 0.733136C14.5521 0.592003 14.4781 0.461906 14.3796 0.351387C14.2811 0.240868 14.1603 0.152426 14.0252 0.0918668C13.8901 0.0313073 13.7437 0 13.5957 0C13.4476 0 13.3012 0.0313073 13.1661 0.0918668C13.031 0.152426 12.9102 0.240868 12.8117 0.351387C12.7132 0.461906 12.6392 0.592003 12.5945 0.733136C12.5499 0.87427 12.5356 1.02325 12.5526 1.17029V2.31929H3.13934C2.26702 2.3638 1.4477 2.75141 0.860174 3.39755C0.272647 4.0437 -0.0354022 4.89592 0.0032424 5.76826V42.556C-0.0340552 43.4275 0.274599 44.2784 0.861987 44.9235C1.44937 45.5686 2.26791 45.9555 3.13934 46H35.906C36.6062 45.9949 37.2974 45.8419 37.9343 45.5509C38.5711 45.2599 39.1392 44.8377 39.6014 44.3118L44.4689 38.959C45.4651 37.8442 46.0098 36.3981 45.9967 34.9033V5.76826C46.0354 4.89657 45.7279 4.04492 45.1412 3.39889C44.5545 2.75286 43.7362 2.36481 42.8646 2.31929ZM38.6825 42.0793V39.107C38.6693 38.8159 38.7719 38.5314 38.9679 38.3157C39.1639 38.1 39.4374 37.9707 39.7285 37.956H42.4315L38.6825 42.0793ZM43.9107 33.3591C43.9364 33.9398 43.7316 34.5072 43.3409 34.9378C42.9502 35.3683 42.4052 35.6272 41.8246 35.658H39.7385C38.8661 35.7026 38.0468 36.0902 37.4593 36.7363C36.8718 37.3825 36.5637 38.2347 36.6024 39.107V41.406C36.6281 41.9868 36.4233 42.5541 36.0326 42.9847C35.6419 43.4153 35.0969 43.6741 34.5163 43.705H3.13934C2.84787 43.6913 2.57369 43.5627 2.37687 43.3474C2.18006 43.132 2.07667 42.8474 2.08934 42.556V14.9652H43.9107V33.3591ZM43.9107 12.6662H2.08934V5.76826C2.0764 5.47666 2.17967 5.19183 2.37651 4.97624C2.57335 4.76066 2.84769 4.63192 3.13934 4.61827H12.5476V6.08803C12.2223 6.30404 11.9562 6.59806 11.7737 6.94325C11.5911 7.28844 11.4979 7.67384 11.5026 8.06427C11.4764 8.64613 11.6818 9.21468 12.0739 9.64552C12.466 10.0764 13.0128 10.3344 13.5947 10.3633C14.1756 10.3332 14.7211 10.0745 15.1119 9.64378C15.5028 9.21305 15.7073 8.64522 15.6808 8.06427C15.6864 7.67298 15.5936 7.28655 15.411 6.94041C15.2285 6.59426 14.9619 6.29947 14.6357 6.08307V4.61827H31.3652V6.08803C31.0399 6.30404 30.7738 6.59806 30.5913 6.94325C30.4087 7.28844 30.3155 7.67384 30.3202 8.06427C30.2933 8.35503 30.3273 8.64822 30.4202 8.92508C30.513 9.20195 30.6626 9.4564 30.8594 9.67219C31.0562 9.88798 31.2959 10.0604 31.5631 10.1783C31.8303 10.2962 32.1192 10.3572 32.4113 10.3572C32.7034 10.3572 32.9923 10.2962 33.2595 10.1783C33.5267 10.0604 33.7663 9.88798 33.9631 9.67219C34.1599 9.4564 34.3095 9.20195 34.4024 8.92508C34.4952 8.64822 34.5293 8.35503 34.5023 8.06427C34.5079 7.67298 34.4152 7.28655 34.2326 6.94041C34.05 6.59426 33.7835 6.29947 33.4573 6.08307V4.61827H42.8656C43.1564 4.63319 43.4295 4.76248 43.6252 4.97792C43.821 5.19337 43.9236 5.47748 43.9107 5.76826V12.6662Z"
    fill="currentColor" />
</svg>