<svg xmlns="http://www.w3.org/2000/svg" width="46" height="46" viewBox="0 0 46 46" fill="none">
  <path
    d="M31.1855 23.0502V13.702C31.1866 13.494 31.134 13.2892 31.033 13.1074C30.9319 12.9255 30.7857 12.7727 30.6084 12.6637L23.7911 8.73856C23.6197 8.62555 23.4188 8.56531 23.2135 8.56531C23.0081 8.56531 22.8073 8.62555 22.6359 8.73856L15.8216 12.6627C15.6443 12.7717 15.4981 12.9245 15.397 13.1064C15.2959 13.2882 15.2434 13.493 15.2444 13.701V23.0492C15.2357 23.2033 15.2598 23.3575 15.315 23.5016C15.3703 23.6458 15.4555 23.7766 15.565 23.8854C15.6746 23.9942 15.806 24.0785 15.9505 24.1329C16.0951 24.1873 16.2495 24.2104 16.4036 24.2007H30.0313C30.3366 24.2 30.6293 24.0786 30.8455 23.8631C31.0618 23.6476 31.184 23.3554 31.1855 23.0502ZM28.876 21.8957H17.5579V14.2788L23.2199 10.9314L28.882 14.2788L28.876 21.8957Z"
    fill="currentColor" />
  <path
    d="M45.4232 28.5683L33.8279 23.1084V15.3533C33.8288 15.1807 33.7852 15.0108 33.7014 14.8598C33.6175 14.7089 33.4962 14.5821 33.3491 14.4917L23.9581 9.03174V5.01027H26.0659C26.1939 5.0181 26.322 4.99869 26.4418 4.95332C26.5617 4.90795 26.6705 4.83765 26.7612 4.74708C26.8518 4.65652 26.9221 4.54774 26.9675 4.42797C27.0129 4.30819 27.0324 4.18015 27.0245 4.05231C27.0324 3.92446 27.0129 3.79642 26.9675 3.67664C26.9221 3.55687 26.8518 3.4481 26.7612 3.35753C26.6705 3.26696 26.5617 3.19666 26.4418 3.15129C26.322 3.10592 26.1939 3.08651 26.0659 3.09434H23.9581V0.9888C23.9622 0.860469 23.9405 0.732617 23.8942 0.612842C23.8479 0.493067 23.778 0.383813 23.6886 0.291572C23.5993 0.199332 23.4922 0.125988 23.3739 0.0758999C23.2556 0.0258113 23.1285 0 23 0C22.8715 0 22.7444 0.0258113 22.6261 0.0758999C22.5078 0.125988 22.4007 0.199332 22.3114 0.291572C22.222 0.383813 22.1521 0.493067 22.1058 0.612842C22.0595 0.732617 22.0378 0.860469 22.0419 0.9888V3.09533H19.9331C19.8051 3.0875 19.677 3.10691 19.5572 3.15229C19.4373 3.19766 19.3285 3.26795 19.2378 3.35852C19.1472 3.44909 19.0769 3.55786 19.0315 3.67763C18.9861 3.79741 18.9667 3.92546 18.9745 4.0533C18.9667 4.18114 18.9861 4.30919 19.0315 4.42896C19.0769 4.54874 19.1472 4.65751 19.2378 4.74808C19.3285 4.83864 19.4373 4.90894 19.5572 4.95431C19.677 4.99968 19.8051 5.0191 19.9331 5.01126H22.0409V9.03274L12.6499 14.4926C12.5028 14.5831 12.3815 14.7099 12.2976 14.8608C12.2138 15.0118 12.1702 15.1817 12.1711 15.3543V23.1114L0.576837 28.5683C0.405344 28.6377 0.258749 28.7571 0.156159 28.911C0.0535687 29.0649 -0.000258382 29.2461 0.0016934 29.431V45.0403C-0.0061433 45.1682 0.0132817 45.2962 0.0586826 45.416C0.104083 45.5358 0.174424 45.6446 0.265049 45.7351C0.355673 45.8257 0.464514 45.896 0.584365 45.9414C0.704216 45.9867 0.832344 46.0061 0.960267 45.9983H18.304C18.4319 46.0061 18.56 45.9867 18.6799 45.9414C18.7997 45.896 18.9086 45.8257 18.9992 45.7351C19.0898 45.6446 19.1602 45.5358 19.2056 45.416C19.251 45.2962 19.2704 45.1682 19.2626 45.0403V37.8531C19.2626 36.8626 19.6563 35.9127 20.3571 35.2124C21.0579 34.512 22.0084 34.1185 22.9995 34.1185C23.9906 34.1185 24.9411 34.512 25.6419 35.2124C26.3427 35.9127 26.7364 36.8626 26.7364 37.8531V45.0403C26.7286 45.1682 26.748 45.2962 26.7934 45.416C26.8388 45.5358 26.9092 45.6446 26.9998 45.7351C27.0904 45.8257 27.1993 45.896 27.3191 45.9414C27.439 45.9867 27.5671 46.0061 27.695 45.9983H45.0397C45.1677 46.0061 45.2958 45.9867 45.4156 45.9414C45.5355 45.896 45.6443 45.8257 45.735 45.7351C45.8256 45.6446 45.8959 45.5358 45.9413 45.416C45.9867 45.2962 46.0061 45.1682 45.9983 45.0403V29.431C46.0003 29.2461 45.9464 29.0649 45.8438 28.911C45.7412 28.7571 45.5947 28.6377 45.4232 28.5683ZM1.91487 30.0047L12.1681 25.1206V44.0814H1.91785L1.91487 30.0047ZM22.9965 32.2076C21.4992 32.2107 20.064 32.8065 19.0051 33.8645C17.9462 34.9226 17.3498 36.3567 17.3464 37.8531V44.0774H14.0882V15.9281L22.9995 10.7521L31.9118 15.9231V44.0824H28.6536V37.8531C28.6335 36.3612 28.0312 34.9361 26.975 33.8816C25.9189 32.827 24.4924 32.2263 22.9995 32.2076H22.9965ZM44.0812 44.0824H33.8279V25.2209L44.0812 30.0087V44.0824Z"
    fill="currentColor" />
</svg>