<svg viewBox="0 0 100 40" fill="none" xmlns="http://www.w3.org/2000/svg">
  <g clip-path="url(#clip0_71_17)">
    <path fill-rule="evenodd" clip-rule="evenodd" d="M99.986 40H0V0H100V40H99.986Z" fill="#0058AB" />
    <path fill-rule="evenodd" clip-rule="evenodd"
      d="M2 20C2 29.833 22.116 38 50.007 38C77.898 38 98 29.833 98 20C98 10.167 77.884 2 50.007 2C22.131 2 2 10.167 2 20Z"
      fill="#FBD914" />
    <path
      d="M46.448 26.005C46.763 26.452 47.108 26.872 47.508 27.25H36.688C36.688 26.83 36.272 25.977 35.813 25.305C34.8319 23.8562 33.8525 22.4062 32.875 20.955V26.005C32.875 26.425 32.875 26.83 33.09 27.25H24.075C24.29 26.83 24.29 26.424 24.29 26.005V14C24.29 13.58 24.29 13.174 24.075 12.755H33.09C32.875 13.175 32.875 13.58 32.875 14V19.246C32.875 19.246 35.755 15.581 36.415 14.727C36.917 14.084 37.533 13.174 37.533 12.755H46.935C46.29 13.175 45.574 13.93 44.986 14.629L41.546 18.729C41.546 18.729 45.875 25.179 46.448 26.004V26.005ZM49.286 14V26.004C49.286 26.424 49.286 26.829 49.071 27.249H66.471V23.219C66.041 23.429 65.625 23.429 65.195 23.429H57.871V21.527H64.908V18.477H57.871V16.56H65.195C65.625 16.56 66.041 16.56 66.471 16.756V12.741H49.071C49.286 13.174 49.286 13.581 49.286 14V14ZM90.578 26.004C90.722 26.465 90.965 26.885 91.281 27.249H81.85C81.893 26.829 81.735 26.423 81.563 26.004C81.563 26.004 81.42 25.668 81.219 25.178L81.133 24.968H75.701L75.615 25.192C75.615 25.192 75.457 25.598 75.314 26.018C75.171 26.438 75.013 26.843 75.07 27.263H67.632C67.9356 26.896 68.1643 26.473 68.305 26.018L72.763 14.014C72.92 13.594 73.078 13.188 73.021 12.769H85.591C85.476 13.189 85.705 13.594 85.863 14.014C86.235 14.924 90.263 25.192 90.578 26.004V26.004ZM79.943 21.904L78.625 18.547C78.5078 18.2366 78.4119 17.9185 78.338 17.595C78.2807 17.9194 78.1943 18.238 78.08 18.547C78.037 18.687 77.478 20.156 76.833 21.904H79.943ZM19.803 12.754H10C10.215 13.174 10.215 13.58 10.215 14V26.004C10.215 26.424 10.215 26.829 10 27.249H19.804C19.589 26.829 19.589 26.423 19.589 26.004V14C19.589 13.58 19.589 13.174 19.804 12.755L19.803 12.754ZM87.568 13.902C87.525 12.881 88.342 12.027 89.388 11.999H89.518C90.578 11.985 91.452 12.797 91.467 13.832V13.902C91.495 14.952 90.65 15.832 89.561 15.861C88.486 15.889 87.583 15.063 87.554 14C87.568 13.972 87.568 13.93 87.568 13.902V13.902ZM87.955 13.902C87.955 14.742 88.658 15.427 89.518 15.427C90.378 15.427 91.08 14.741 91.08 13.902C91.08 13.062 90.378 12.377 89.518 12.377C88.686 12.349 87.984 12.979 87.955 13.79V13.902ZM89.131 15.035H88.787V12.741H89.661C89.8557 12.7436 90.0415 12.8229 90.1782 12.9616C90.3148 13.1003 90.3913 13.2873 90.391 13.482C90.391 13.762 90.234 14.014 89.976 14.154L90.478 15.035H90.091L89.632 14.224H89.131V15.035V15.035ZM89.131 13.902H89.604C89.833 13.916 90.034 13.748 90.034 13.524C90.034 13.3 89.876 13.104 89.647 13.104H89.131V13.902Z"
      fill="#0058A3" />
  </g>
  <defs>
    <clipPath id="clip0_71_17">
      <rect width="100" height="40" fill="white" />
    </clipPath>
  </defs>
</svg>