<svg xmlns="http://www.w3.org/2000/svg" id="Camada_1" data-name="Camada 1" viewBox="0 0 33 35">
  <defs>
    <style>
      .cls-1 {
        fill-rule: evenodd;
      }
    </style>
  </defs>
  <path class="cls-1"
    d="M8.988,2.2158H24.889a2.0992,2.0992,0,0,1,2.0314,2.15V5.3932a.9883.9883,0,1,1-1.9674.01V4.8417a.651.651,0,0,0-.6491-.6491H8.37a.651.651,0,0,0-.6491.6491v.55a.9457.9457,0,1,1-1.8753.0313V4.3655a2.099,2.099,0,0,1,2.0309-2.15H8.988Zm7.2911,23.9726H26.5914c2.3549,0,2.3782-2.503,2.1385-3.7386a.8911.8911,0,0,0-1.6978,0v.9641a.8037.8037,0,0,1-.801.801H6.4593a.8035.8035,0,0,1-.8009-.801V22.45a.8911.8911,0,0,0-1.6978,0c-.24,1.2356-.2164,3.7386,2.1384,3.7386h10.18Z" />
  <path class="cls-1"
    d="M22.6543,13.2221h1.644v-.0182a1.5691,1.5691,0,0,0,1.3267-1.5454h0a1.5685,1.5685,0,0,0-1.5636-1.5637H20.75v8.1758h4.2a1.62,1.62,0,0,0,1.6146-1.6146h0A1.62,1.62,0,0,0,24.95,15.0414h-.6514v-.0037h-1.644a.91.91,0,0,1-.9076-.9076h0a.91.91,0,0,1,.9076-.908Zm3.8647.8024A3.1441,3.1441,0,0,1,28.3808,16.84h0a3.2684,3.2684,0,0,1-3.36,3.1478H19.8434a.8569.8569,0,0,1-.88-.8253V9.31a.8672.8672,0,0,1,.865-.8641h4.3134a3.3091,3.3091,0,0,1,3.3011,3.2979h0A3.2858,3.2858,0,0,1,26.519,14.0245Z" />
  <path
    d="M9.6451,29.2129a.2776.2776,0,1,1,.5551,0v1.5024h-.0009a1.2486,1.2486,0,0,1-1.2459,1.2463v.0014H8.952v-.0014a1.2486,1.2486,0,0,1-1.2463-1.2459H7.7048V29.2128a.2776.2776,0,0,1,.5551,0v1.5029H8.259a.6972.6972,0,0,0,.693.6926v-.0009h.0014v.0009a.6965.6965,0,0,0,.6926-.6926H9.6451V29.2129Z" />
  <path
    d="M12.27,31.4074a.2776.2776,0,0,1,0,.5552h-.7668v-.0014A1.0442,1.0442,0,0,1,10.46,30.9186h-.001V29.2124a.2776.2776,0,0,1,.5552,0v1.7062h-.0009a.4931.4931,0,0,0,.49.4893v-.001H12.27Z" />
  <path
    d="M18.14,19.0038a1.0391,1.0391,0,1,1-2.0665.22l-.8519-7.835-3.0161,7.6607-.0028.007-.0005.001h0l-.0084.0205-.007.0159-.0019.0038-.007.0159-.0042.0093-.0075.015-.0032.007-.008.0154-.0028.0056a1.0293,1.0293,0,0,1-.2107.2743l-.0028.0028-.0155.014a1.0512,1.0512,0,0,1-.1794.1276l-.0047.0028-.02.0108-.0009,0-.0183.0094-.0084.0042-.0117.0056-.0126.0056-.0107.0051-.0131.0057-.0112.0046-.0108.0042-.0093.0038-.0056.0023-.0089.0033-.014.0051-.008.0028a1.0357,1.0357,0,0,1-.3047.0575l-.0126,0h-.05l-.013,0a1.0334,1.0334,0,0,1-.34-.071l-.014-.0056-.0032-.0014-.0136-.0056-.0135-.0061L10.8,19.6225l-.0117-.0056-.0126-.006-.007-.0038-.0192-.01-.0018-.0014-.0164-.0089-.0089-.0051a1.0651,1.0651,0,0,1-.1589-.11l-.0037-.0033c-.0117-.01-.0229-.02-.0341-.03l0-.0009-.0262-.0248-.0252-.0261,0-.001c-.01-.0112-.0205-.0224-.03-.0341l-.0033-.0037a1.0651,1.0651,0,0,1-.11-.1589l-.0051-.0089-.0089-.0163-.0009-.0019-.01-.0187-.0032-.007-.0061-.0122-.0056-.0116-.0047-.0108-.0061-.0135-.0056-.0136-.0014-.0033-.0056-.014L7.2468,11.3879l-.851,7.8355a1.0391,1.0391,0,1,1-2.0665-.22L5.3331,9.7663l0-.0023,0-.0042h0a1.7616,1.7616,0,0,1,.0673-.32A1.73,1.73,0,0,1,6.8178,8.2424L6.82,8.2419c.0187-.0028.0379-.0046.0566-.006a1.7615,1.7615,0,0,1,.2622-.008l.0042.0005V8.2279a1.7817,1.7817,0,0,1,.314.0421A1.7052,1.7052,0,0,1,8.6642,9.314l2.57,6.527,2.57-6.527A1.7052,1.7052,0,0,1,15.0113,8.27a1.7817,1.7817,0,0,1,.314-.0421v.0005l.0042-.0005a1.7686,1.7686,0,0,1,.2627.008c.0186.0014.0373.0037.056.006l.0019.0005A1.73,1.73,0,0,1,17.0675,9.44a1.6963,1.6963,0,0,1,.0673.32h0l0,.0042,0,.0023Z" />
  <path
    d="M7.6024,31.6523a.2774.2774,0,0,1-.551.0649l-.2378-2L5.9649,31.685a.2775.2775,0,0,1-.51,0h0l-.8487-1.9674-.2378,2a.2774.2774,0,0,1-.551-.0649L4.0938,29.33a.4446.4446,0,0,1,.2425-.3444.4637.4637,0,0,1,.0538-.0243l.0215-.0074a.4826.4826,0,0,1,.0817-.0178h.0024l.0023,0a.48.48,0,0,1,.3879.1225.4475.4475,0,0,1,.0565.0649.4056.4056,0,0,1,.0323.0524.3276.3276,0,0,1,.0154.0308l.7192,1.6679.7192-1.6679a.4565.4565,0,0,1,.3248-.2631.496.496,0,0,1,.0818-.0112c.0205-.0009.0411-.0009.06,0h.0018l.0206.0019.0023,0v.001h.0014a.468.468,0,0,1,.3458.2219h0a.4268.4268,0,0,1,.0369.0795.4791.4791,0,0,1,.0154.0542.2968.2968,0,0,1,.0066.0364l0,.0024Z" />
  <path
    d="M13.4827,31.685a.2776.2776,0,0,1-.5552,0V29.4909h-.79a.2776.2776,0,0,1,0-.5552h2.1356a.2776.2776,0,0,1,0,.5552h-.79Z" />
  <path d="M15.2146,31.685a.2776.2776,0,1,1-.5552,0V29.2129a.2776.2776,0,0,1,.5552,0Z" />
  <path
    d="M20.9112,31.6513a.2775.2775,0,1,1-.551.0673l-.0977-.7841H19.3a.2776.2776,0,0,1,0-.5552h.8931l-.0253-.2038,0-.0023-.0014-.0192a1.035,1.035,0,0,0-.0893-.2883.6289.6289,0,0,0-.5617-.3743h-.0028V29.49a.5957.5957,0,0,0-.14.0169.5431.5431,0,0,0-.1239.0467.7777.7777,0,0,0-.3864.6187l-.1739,1.5436a.2772.2772,0,1,1-.551-.0608l.1739-1.5435a1.3322,1.3322,0,0,1,.686-1.0529,1.1,1.1,0,0,1,.2454-.09,1.15,1.15,0,0,1,.27-.0318v-.0014h.0028a1.1688,1.1688,0,0,1,1.0561.6823,1.4518,1.4518,0,0,1,.0939.2355,1.5066,1.5066,0,0,1,.0486.2262l.0047.0262,0,.0023Z" />
  <path
    d="M21.7612,31.685a.2776.2776,0,1,1-.5551,0V29.3876a.31.31,0,0,1,.0037-.0467.3874.3874,0,0,1,.022-.09l0-.0009h0a.4.4,0,0,1,.0229-.05l0-.0009h0a.392.392,0,0,1,.2168-.1823.2669.2669,0,0,1,.0383-.01l.03-.0056.0023-.0005V29a.3479.3479,0,0,1,.0664-.0033h.007a.39.39,0,0,1,.2934.1509l1.4782,1.8847V29.2133a.2776.2776,0,1,1,.5551,0v2.2861a.3913.3913,0,0,1-.1448.3043.3742.3742,0,0,1-.0566.0383.3174.3174,0,0,1-.0346.0168l-.0028.0014h0L23.68,31.87l-.001,0v0h0l-.0018,0a.3879.3879,0,0,1-.2977-.0168.2281.2281,0,0,1-.0355-.0187.4157.4157,0,0,1-.0552-.0411.4016.4016,0,0,1-.0355-.0369l-.0093-.0108-.0005,0h0L23.24,31.741l-1.4781-1.8847V31.685Z" />
  <path
    d="M26.0989,31.4074a.2776.2776,0,0,1,0,.5552H25.28v-.0014a1.097,1.097,0,0,1-1.0944-1.0945h-.001V30.03h.001a1.097,1.097,0,0,1,1.094-1.0945v-.0014h.8192a.2776.2776,0,0,1,0,.5552H25.28v-.0009a.5441.5441,0,0,0-.5407.5411H24.74v.8365H24.739a.5441.5441,0,0,0,.5411.5407V31.406h.8188Z" />
  <path
    d="M27.7051,28.9353h0l0,.0014a1.3141,1.3141,0,0,1,.91.364,1.23,1.23,0,0,1,.3832.8893H29v.5178h-.0009a1.2294,1.2294,0,0,1-.3837.89,1.3135,1.3135,0,0,1-.9094.364v.0014h-.0009v-.0014a1.314,1.314,0,0,1-.91-.364,1.2311,1.2311,0,0,1-.3832-.8889h-.0009v-.5182h.0009a1.23,1.23,0,0,1,.3837-.8893,1.3138,1.3138,0,0,1,.9094-.3641v-.0014h.0005Zm0,.5542V29.49h-.0009V29.49a.7558.7558,0,0,0-.5253.21.6821.6821,0,0,0-.2145.49h.0014v.5183h-.0014a.68.68,0,0,0,.2141.49.7587.7587,0,0,0,.5262.21v-.001h.0009v.001a.7577.7577,0,0,0,.5257-.21.6807.6807,0,0,0,.2141-.49h-.001V30.19h.001a.6793.6793,0,0,0-.2141-.49A.7591.7591,0,0,0,27.7055,29.49Z" />
  <path
    d="M15.4478,30.4316V29.2255h0a.27.27,0,0,1,.0229-.11.2838.2838,0,0,1,.0644-.0953l.0033-.0033h0a.2858.2858,0,0,1,.1823-.0795.0987.0987,0,0,1,.0163,0v0h1.0716v.0014a.8872.8872,0,0,1,.8856.8851h.0014v0h-.0014a.8813.8813,0,0,1-.1365.471.9132.9132,0,0,1,.1575.1257l.0168.0187a.9015.9015,0,0,1,.2472.62h.0014v.0009h0v0h-.0014a.9039.9039,0,0,1-.9024.9029v.0014h-1.351a.2776.2776,0,0,1-.2776-.2776V30.4316Zm.5556-.9407v1.9165h1.0734v.0009a.3526.3526,0,0,0,.3491-.3495H17.425v-.0005h0v-.0009h.0009a.3475.3475,0,0,0-.093-.2351l-.0107-.01a.3477.3477,0,0,0-.2458-.1037v.0009h-.37a.2779.2779,0,0,1-.2775-.2776h0a.2782.2782,0,0,1,.2775-.2776h.1267a.3317.3317,0,0,0,.2089-.0976l0,0,0,0a.33.33,0,0,0,.0977-.2337H17.14v-.0005H17.14a.3352.3352,0,0,0-.3323-.3318v.001h-.8047Z" />
</svg>